<svg width="32" height="32" xmlns="http://www.w3.org/2000/svg">

 <g>
  <title>background</title>
  <rect fill="none" id="canvas_background" height="402" width="582" y="-1" x="-1"/>
 </g>
 <g>
  <title>Layer 1</title>
  <path fill="#e5e5e5" id="svg_1" d="m16,4c-6.617,0 -12,5.383 -12,12s5.383,12 12,12s12,-5.383 12,-12s-5.383,-12 -12,-12m0,-2c7.732,0 14,6.268 14,14s-6.268,14 -14,14s-14,-6.268 -14,-14s6.268,-14 14,-14l0,0zm3.536,9.05l1.414,1.414l-3.536,3.536l3.536,3.536l-1.414,1.414l-3.536,-3.536l-3.536,3.536l-1.414,-1.414l3.536,-3.536l-3.536,-3.536l1.414,-1.414l3.536,3.536l3.536,-3.536z"/>
 </g>
</svg>